<?xml version="1.0" encoding="iso-8859-1"?>
<!-- Generator: Adobe Illustrator 19.0.0, SVG Export Plug-In . SVG Version: 6.00 Build 0)  -->
<svg version="1.1" id="Layer_1" xmlns="http://www.w3.org/2000/svg" xmlns:xlink="http://www.w3.org/1999/xlink" x="0px" y="0px"
	 viewBox="0 0 512 512" style="enable-background:new 0 0 512 512;" xml:space="preserve">
<g>
	<g>
		<g>
			<path d="M256,0C114.837,0,0,114.837,0,256s114.837,256,256,256s256-114.837,256-256S397.163,0,256,0z M213.333,234.667
				c11.797,0,21.333,9.557,21.333,21.333v85.333c0,11.776-9.536,21.333-21.333,21.333H128c-11.797,0-21.333-9.557-21.333-21.333
				c0-11.776,9.536-21.333,21.333-21.333h64v-42.667h-64c-11.797,0-21.333-9.557-21.333-21.333v-85.333
				c0-11.776,9.536-21.333,21.333-21.333h85.333c11.797,0,21.333,9.557,21.333,21.333S225.131,192,213.333,192h-64v42.667H213.333z
				 M405.333,341.333c0,11.776-9.536,21.333-21.333,21.333h-85.333c-11.797,0-21.333-9.557-21.333-21.333V170.667
				c0-11.776,9.536-21.333,21.333-21.333H384c11.797,0,21.333,9.557,21.333,21.333V341.333z"/>
			<rect x="320" y="192" width="42.667" height="128"/>
		</g>
	</g>
</g>
<g>
</g>
<g>
</g>
<g>
</g>
<g>
</g>
<g>
</g>
<g>
</g>
<g>
</g>
<g>
</g>
<g>
</g>
<g>
</g>
<g>
</g>
<g>
</g>
<g>
</g>
<g>
</g>
<g>
</g>
</svg>
