<?xml version="1.0" encoding="iso-8859-1"?>
<!-- Generator: Adobe Illustrator 19.0.0, SVG Export Plug-In . SVG Version: 6.00 Build 0)  -->
<svg version="1.1" id="Layer_1" xmlns="http://www.w3.org/2000/svg" xmlns:xlink="http://www.w3.org/1999/xlink" x="0px" y="0px"
	 viewBox="0 0 512 512" style="enable-background:new 0 0 512 512;" xml:space="preserve">
<g>
	<g>
		<path d="M256,0C114.837,0,0,114.837,0,256s114.837,256,256,256s256-114.837,256-256S397.163,0,256,0z M298.667,234.667
			c11.797,0,21.333,9.557,21.333,21.333v85.333c0,11.776-9.536,21.333-21.333,21.333h-85.333c-11.797,0-21.333-9.557-21.333-21.333
			c0-11.776,9.536-21.333,21.333-21.333h64v-42.667h-64C201.536,277.333,192,267.776,192,256v-85.333
			c0-11.776,9.536-21.333,21.333-21.333h85.333c11.797,0,21.333,9.557,21.333,21.333S310.464,192,298.667,192h-64v42.667H298.667z"
			/>
	</g>
</g>
<g>
</g>
<g>
</g>
<g>
</g>
<g>
</g>
<g>
</g>
<g>
</g>
<g>
</g>
<g>
</g>
<g>
</g>
<g>
</g>
<g>
</g>
<g>
</g>
<g>
</g>
<g>
</g>
<g>
</g>
</svg>
