<?xml version="1.0" encoding="iso-8859-1"?>
<!-- Generator: Adobe Illustrator 19.0.0, SVG Export Plug-In . SVG Version: 6.00 Build 0)  -->
<svg version="1.1" id="Layer_1" xmlns="http://www.w3.org/2000/svg" xmlns:xlink="http://www.w3.org/1999/xlink" x="0px" y="0px"
	 viewBox="0 0 512 512" style="enable-background:new 0 0 512 512;" xml:space="preserve">
<g>
	<g>
		<g>
			<rect x="298.667" y="192" width="42.667" height="128"/>
			<path d="M256,0C114.837,0,0,114.837,0,256s114.837,256,256,256s256-114.837,256-256S397.163,0,256,0z M213.333,341.333
				c0,11.776-9.536,21.333-21.333,21.333s-21.333-9.557-21.333-21.333V222.165l-6.251,6.251c-4.16,4.16-9.621,6.251-15.083,6.251
				c-5.461,0-10.923-2.091-15.083-6.251c-8.341-8.341-8.341-21.824,0-30.165l42.645-42.645c1.963-1.984,4.331-3.541,6.955-4.629
				c5.205-2.155,11.093-2.155,16.299,0c5.227,2.155,9.387,6.315,11.541,11.541c1.088,2.603,1.643,5.376,1.643,8.149V341.333z
				 M384,341.333c0,11.776-9.536,21.333-21.333,21.333h-85.333c-11.797,0-21.333-9.557-21.333-21.333V170.667
				c0-11.776,9.536-21.333,21.333-21.333h85.333c11.797,0,21.333,9.557,21.333,21.333V341.333z"/>
		</g>
	</g>
</g>
<g>
</g>
<g>
</g>
<g>
</g>
<g>
</g>
<g>
</g>
<g>
</g>
<g>
</g>
<g>
</g>
<g>
</g>
<g>
</g>
<g>
</g>
<g>
</g>
<g>
</g>
<g>
</g>
<g>
</g>
</svg>
