<svg width="662" height="980" xmlns="http://www.w3.org/2000/svg" preserveAspectRatio="xMidYMid meet">
 <metadata>Created by potrace 1.15, written by Peter Selinger 2001-2017</metadata>

 <g>
  <title>background</title>
  <rect fill="none" id="canvas_background" height="402" width="582" y="-1" x="-1"/>
 </g>
 <g>
  <title>Layer 1</title>
  <g id="svg_1" fill="#000000" transform="translate(0, 980) scale(0.1, -0.1)">
   <path stroke="#0fffff" fill="#fff" id="svg_2" d="m2730,9789c-242,-26 -610,-169 -859,-334c-403,-265 -715,-661 -865,-1094c-93,-268 -120,-438 -120,-751c0,-264 14,-370 78,-582c106,-347 163,-438 278,-438c43,0 54,4 84,34c45,45 45,91 -2,211c-124,317 -164,516 -164,813c0,241 23,391 91,597c131,394 392,737 738,969c636,426 1500,421 2142,-13c320,-216 564,-535 712,-931c71,-191 81,-266 81,-615c0,-425 -18,-525 -151,-810c-102,-219 -109,-244 -73,-303c49,-80 125,-90 193,-25c103,101 243,439 293,707c35,192 35,613 0,813c-57,326 -233,695 -456,958c-100,118 -273,288 -364,360c-317,247 -717,409 -1068,435c-164,11 -458,11 -568,-1z"/>
   <path stroke="#0fffff" fill="#fff" id="svg_3" d="m3487,8620c-107,-19 -333,-157 -403,-246c-69,-88 -53,-86 -133,-12c-79,73 -170,125 -281,159c-63,20 -96,24 -205,23c-113,0 -140,-4 -210,-27c-114,-38 -198,-90 -291,-182c-155,-152 -191,-233 -204,-454c-6,-86 -13,-987 -16,-2003l-7,-1848l-271,268c-274,269 -421,395 -567,482c-224,135 -415,163 -572,84c-64,-33 -181,-149 -225,-226c-73,-124 -113,-298 -93,-410c22,-128 270,-589 1099,-2043c577,-1012 653,-1128 912,-1385c427,-425 912,-676 1501,-777c143,-25 547,-24 734,1c447,60 899,253 1275,545c113,88 313,282 417,406c316,373 537,858 622,1360c44,258 46,334 44,1675l-2,1276l-41,88c-112,244 -284,402 -496,456c-170,44 -301,17 -497,-101l-81,-49l-43,83c-90,173 -274,340 -439,398c-53,19 -74,21 -214,16c-182,-6 -220,-16 -338,-87c-46,-29 -86,-50 -88,-47c-2,2 -7,460 -10,1018l-7,1014l-58,115c-32,63 -82,143 -110,178c-90,109 -233,200 -374,237c-71,19 -260,28 -328,15zm253,-281c176,-28 293,-143 321,-316c8,-47 14,-570 19,-1678c5,-1055 11,-1623 18,-1648c12,-46 26,-64 65,-84c44,-22 122,-13 153,18c33,33 41,108 49,454c10,421 19,528 52,592c33,65 130,161 203,199c53,27 61,29 190,29c122,0 139,-2 180,-24c101,-53 193,-152 233,-253c20,-50 21,-77 27,-488c5,-389 8,-439 23,-468c51,-95 194,-95 243,0c14,27 18,79 25,308c4,151 12,289 17,305c29,94 125,210 207,250c59,29 281,29 340,0c57,-27 148,-123 180,-190c25,-50 29,-74 36,-194c19,-327 2,-2516 -21,-2746c-14,-146 -33,-234 -82,-385c-87,-268 -176,-458 -307,-657c-100,-150 -165,-231 -299,-367c-351,-357 -783,-585 -1292,-683c-166,-31 -492,-43 -673,-23c-550,59 -1059,313 -1453,723c-133,138 -225,258 -326,427c-269,447 -1313,2277 -1501,2630c-65,122 -92,212 -84,283c15,124 119,250 229,277c88,22 205,-21 348,-128c127,-95 510,-487 702,-717c96,-115 196,-229 221,-253c41,-37 52,-42 94,-42c64,0 108,28 124,77c15,48 24,1007 27,2993l2,1416l35,65c71,134 172,204 331,229c145,23 312,-28 402,-124c26,-28 62,-76 80,-106l31,-56l3,-1629c3,-1234 7,-1639 16,-1666c7,-19 24,-46 38,-60c22,-20 36,-24 90,-24c85,0 102,17 114,111c12,97 20,640 30,2111l8,1273l37,50c46,62 127,134 181,161c78,37 193,48 314,28z"/>
  </g>
 </g>
</svg>